<svg width="175" height="138" viewBox="0 0 175 138" fill="none" xmlns="http://www.w3.org/2000/svg">
<g clip-path="url(#clip0_181_15)">
<path d="M80 40C80 42.6453 79.744 45.232 79.2533 47.7333H54.6667C51.1467 47.7333 48.2667 50.6133 48.2667 54.1333V79.1413C47.7387 79.2533 47.2053 79.3547 46.6667 79.4453C44.496 79.808 42.272 80 40 80C37.3547 80 34.768 79.744 32.2667 79.2533V54.1333C32.2667 50.6133 29.3867 47.7333 25.8667 47.7333H0.746667C0.256 45.232 0 42.6453 0 40C0 37.1627 0.293333 34.4 0.858667 31.7333H25.8667C29.3867 31.7333 32.2667 28.8533 32.2667 25.3333V0.746667C34.768 0.256 37.3547 0 40 0C42.8373 0 45.6 0.293333 48.2667 0.858667V25.3333C48.2667 28.8533 51.1467 31.7333 54.6667 31.7333H79.1413C79.7067 34.4 80 37.1627 80 40Z" fill="#2FA1DB" fill-opacity="0.8"/>
</g>
<g clip-path="url(#clip1_181_15)">
<path d="M112 98C112 100.645 111.744 103.232 111.253 105.733H86.6667C83.1467 105.733 80.2667 108.613 80.2667 112.133V137.141C79.7387 137.253 79.2053 137.355 78.6667 137.445C76.496 137.808 74.272 138 72 138C69.3547 138 66.768 137.744 64.2667 137.253V112.133C64.2667 108.613 61.3867 105.733 57.8667 105.733H32.7467C32.256 103.232 32 100.645 32 98C32 95.1627 32.2933 92.4 32.8587 89.7333H57.8667C61.3867 89.7333 64.2667 86.8533 64.2667 83.3333V58.7467C66.768 58.256 69.3547 58 72 58C74.8373 58 77.6 58.2933 80.2667 58.8587V83.3333C80.2667 86.8533 83.1467 89.7333 86.6667 89.7333H111.141C111.707 92.4 112 95.1627 112 98Z" fill="#00AEEF" fill-opacity="0.6"/>
</g>
<g clip-path="url(#clip2_181_15)">
<path d="M175 67C175 69.6453 174.744 72.232 174.253 74.7333H149.667C146.147 74.7333 143.267 77.6133 143.267 81.1333V106.141C142.739 106.253 142.205 106.355 141.667 106.445C139.496 106.808 137.272 107 135 107C132.355 107 129.768 106.744 127.267 106.253V81.1333C127.267 77.6133 124.387 74.7333 120.867 74.7333H95.7467C95.256 72.232 95 69.6453 95 67C95 64.1627 95.2933 61.4 95.8587 58.7333H120.867C124.387 58.7333 127.267 55.8533 127.267 52.3333V27.7467C129.768 27.256 132.355 27 135 27C137.837 27 140.6 27.2933 143.267 27.8587V52.3333C143.267 55.8533 146.147 58.7333 149.667 58.7333H174.141C174.707 61.4 175 64.1627 175 67Z" fill="#00AEEF" fill-opacity="0.2"/>
</g>
<defs>
<clipPath id="clip0_181_15">
<rect width="80" height="80" fill="white"/>
</clipPath>
<clipPath id="clip1_181_15">
<rect width="80" height="80" fill="white" transform="translate(32 58)"/>
</clipPath>
<clipPath id="clip2_181_15">
<rect width="80" height="80" fill="white" transform="translate(95 27)"/>
</clipPath>
</defs>
</svg>
