<svg width="90" height="68" viewBox="0 0 90 68" fill="none" xmlns="http://www.w3.org/2000/svg">
<rect width="90" height="67.1053" fill="black"/>
<path d="M76.579 13.4211V14.5399C75.3109 14.5772 74.3413 14.7264 73.67 14.9875C73.036 15.2112 72.6071 15.6588 72.3833 16.3301C72.1595 16.9641 72.0477 17.971 72.0477 19.3509V47.0981C72.0477 48.4407 72.1595 49.4476 72.3833 50.1189C72.6071 50.7902 73.036 51.2378 73.67 51.4615C74.3413 51.6853 75.3109 51.8345 76.579 51.9091V53.0279C75.7212 52.9533 74.6396 52.916 73.3343 52.916C72.0663 52.8787 70.7797 52.8601 69.4743 52.8601C68.0199 52.8601 66.6586 52.8787 65.3906 52.916C64.1226 52.916 63.097 52.9533 62.3138 53.0279V51.9091C63.5818 51.8345 64.5328 51.6853 65.1668 51.4615C65.8381 51.2378 66.2857 50.7902 66.5094 50.1189C66.7332 49.4476 66.8451 48.4407 66.8451 47.0981V16.3301L67.0688 16.4979L53.3631 53.3076H52.468L38.3707 17.0014L38.208 31.9398V46.6736C38.208 48.0162 38.4826 48.9441 38.7063 49.7273C38.9674 50.4732 39.4522 51.014 40.1608 51.3496C40.9067 51.648 42.0069 51.8345 43.4614 51.9091V53.0279C42.7901 52.9533 41.7742 52.3286 40.6927 52.3286C39.6112 52.2913 38.7232 52.7471 37.7536 52.7471C36.8212 52.7471 35.866 52.7098 34.8964 52.7471C33.964 52.7471 33.1867 52.6725 32.5527 52.7471V51.9091C33.8207 51.8345 34.7718 51.648 35.4058 51.3496C36.0771 51.014 36.5246 50.4732 36.7484 49.7273C36.9721 48.9441 37.084 47.8813 37.084 46.5386V19.3509C37.084 17.971 36.9721 16.9641 36.7484 16.3301C36.5246 15.6588 36.0771 15.2112 35.4058 14.9875C34.7718 14.7264 33.8207 14.5772 32.5527 14.5399V13.8685C33.1867 13.9058 34.1662 13.8312 35.0985 13.8685C36.0682 13.9058 36.9633 13.8685 37.8956 13.8685C38.7161 13.8685 39.1357 13.9058 39.9934 13.8685C40.8885 13.8312 42.1938 13.9058 42.7905 13.8685L55.2092 46.8743L54.2582 47.3218L66.8451 13.5889C67.2926 13.5889 67.7215 13.5889 68.1317 13.5889C68.5793 13.5889 69.0268 13.5889 69.4743 13.5889C70.7797 13.5889 72.0663 13.5703 73.3343 13.533C74.6396 13.4957 75.7212 13.4584 76.579 13.4211Z" fill="url(#paint0_linear_197_2)"/>
<path d="M14.5523 13.7287C14.7032 15.0193 14.8164 16.2729 14.8918 17.4898C14.9296 18.7066 14.9484 19.6284 14.9484 20.2552C14.9484 20.919 14.9296 21.5642 14.8918 22.1911C14.8541 22.7811 14.8164 23.2788 14.7787 23.6844H16.0802C16.3065 21.5089 16.6272 19.7943 17.0422 18.5406C17.4572 17.2501 18.174 16.3467 19.1926 15.8305C20.1734 15.2774 21.6636 15.0008 23.6631 15.0008H28.3599C29.6426 15.0008 30.6234 15.1114 31.3025 15.3327C31.9438 15.517 32.3777 15.9411 32.604 16.6048C32.8304 17.2316 32.9436 18.2272 32.9436 19.5915V47.0252C32.9436 48.3526 32.8304 49.3482 32.604 50.0119C32.3777 50.6756 31.9438 51.1181 31.3025 51.3393C30.6234 51.5237 29.6426 51.6159 28.3599 51.6159H24.2289C21.8522 51.6159 20.0602 51.3024 18.853 50.6756C17.6081 50.0488 16.7215 49.0347 16.1934 47.6336C15.6275 46.1955 15.2125 44.2597 14.9484 41.826H13.6469C13.7601 42.8216 13.8166 44.149 13.8166 45.8083C13.8166 46.5089 13.7978 47.5229 13.7601 48.8504C13.6846 50.1409 13.5714 51.4868 13.4205 52.888C15.3445 52.8142 17.5138 52.7774 19.9282 52.7774C22.3427 52.7405 24.493 52.7221 26.3793 52.7221C27.2093 52.7221 28.2845 52.7221 29.6049 52.7221C30.8875 52.7221 32.2834 52.7405 33.7924 52.7774C35.3014 52.7774 36.8293 52.7958 38.3761 52.8327C39.9228 52.8327 42.0934 52.9909 43.4893 53.0278L42.79 52.3285C41.5073 52.2548 40.5453 51.5606 39.904 51.3393C39.2249 51.1181 38.7722 50.6756 38.5458 50.0119C38.3195 49.3482 38.2063 48.3526 38.2063 47.0252V19.5915C38.2063 18.2272 38.3195 17.2316 38.5458 16.6048C38.7722 15.9411 39.347 15.7003 39.904 15.2774C41.0564 14.5607 41.5073 13.9031 42.79 13.8662C41.3941 13.9031 39.9228 13.8024 38.3761 13.8393C36.8293 13.8393 35.2085 13.8316 33.6994 13.8685C32.1904 13.8685 30.8875 13.8946 29.6049 13.8946C28.2845 13.8946 27.2093 13.8946 26.3793 13.8946C24.6439 13.8946 22.6822 13.8946 20.4941 13.8946C18.2683 13.8578 16.2877 13.8024 14.5523 13.7287ZM24.2855 32.6446C24.2855 32.6446 24.2855 32.829 24.2855 33.1977C24.2855 33.5665 24.2855 33.7508 24.2855 33.7508H34.6412C34.6412 33.7508 34.6412 33.5665 34.6412 33.1977C34.6412 32.829 34.6412 32.6446 34.6412 32.6446H24.2855ZM22.6445 25.3437C22.7954 27.4455 22.8708 29.0495 22.8708 30.1557C22.8331 31.2619 22.8142 32.2759 22.8142 33.1977C22.8142 34.1195 22.7954 35.1336 22.7576 36.2398C22.7199 37.3459 22.6256 38.9499 22.4747 41.0517H23.7762C23.9271 39.8718 24.1158 38.7287 24.3421 37.6225C24.5307 36.4794 24.9835 35.5576 25.7002 34.857C26.3793 34.1195 27.5488 33.7508 29.2087 33.7508V32.6446C27.9638 32.6446 27.0206 32.4049 26.3793 31.9256C25.7002 31.4094 25.2098 30.7641 24.908 29.9898C24.6062 29.2154 24.3987 28.4226 24.2855 27.6114C24.1724 26.7634 24.0592 26.0075 23.946 25.3437H22.6445Z" fill="url(#paint1_linear_197_2)"/>
<defs>
<linearGradient id="paint0_linear_197_2" x1="45.0001" y1="19.3421" x2="77.0549" y2="13.8685" gradientUnits="userSpaceOnUse">
<stop stop-color="#288DC0"/>
<stop offset="1" stop-color="white"/>
</linearGradient>
<linearGradient id="paint1_linear_197_2" x1="47.8941" y1="27.3813" x2="8.29252" y2="19.1191" gradientUnits="userSpaceOnUse">
<stop stop-color="#03A4EC"/>
<stop offset="1" stop-color="white"/>
</linearGradient>
</defs>
</svg>
