<svg width="55" height="47" viewBox="0 0 55 47" fill="none" xmlns="http://www.w3.org/2000/svg">
<path fill-rule="evenodd" clip-rule="evenodd" d="M25.8999 20.1383C23.7461 20.1383 22 21.6577 22 23.532V36.6729C22 41.9595 17.0751 46.2451 11 46.2451C4.92486 46.2451 -8.99426e-06 41.9594 0 36.6729L2.15398e-05 23.532C4.12434e-05 11.0845 11.5958 0.993896 25.8999 0.993896V20.1383Z" fill="#66CEF5"/>
<path fill-rule="evenodd" clip-rule="evenodd" d="M54.5249 20.1383C52.3711 20.1383 50.625 21.6577 50.625 23.532V36.6729C50.625 41.9595 45.7001 46.2451 39.625 46.2451C33.5499 46.2451 28.625 41.9594 28.625 36.6729V23.532C28.625 11.0845 40.2208 0.993896 54.5249 0.993896V20.1383Z" fill="#66CEF5"/>
<path d="M50.625 36.673C50.625 41.9597 45.7001 46.2453 39.625 46.2453C33.5499 46.2453 28.625 41.9597 28.625 36.673C28.625 31.3865 33.5499 27.1008 39.625 27.1008C45.7001 27.1008 50.625 31.3865 50.625 36.673Z" fill="#2FA1DB"/>
<path d="M22.0166 36.673C22.0166 41.9597 17.0917 46.2453 11.0166 46.2453C4.94147 46.2453 0.0166016 41.9597 0.0166016 36.673C0.0166016 31.3865 4.94147 27.1008 11.0166 27.1008C17.0917 27.1008 22.0166 31.3865 22.0166 36.673Z" fill="#2FA1DB"/>
</svg>
